<?xml version="1.0" encoding="utf-8"?>
<!-- Generator: Adobe Illustrator 17.0.0, SVG Export Plug-In . SVG Version: 6.00 Build 0)  -->
<!DOCTYPE svg PUBLIC "-//W3C//DTD SVG 1.1//EN" "http://www.w3.org/Graphics/SVG/1.1/DTD/svg11.dtd">
<svg version="1.1" id="Layer_1" xmlns="http://www.w3.org/2000/svg" xmlns:xlink="http://www.w3.org/1999/xlink" x="0px" y="0px"
	 width="612px" height="611.899px" viewBox="0 0 612 611.899" enable-background="new 0 0 612 611.899" xml:space="preserve">
<g>
	<path fill="#A3CDDA" d="M431.515,175.146H168.237c-15.765,0-28.533,14.472-28.533,32.32v159.357
		c0,17.851,12.769,32.306,28.533,32.306h144.742c0,0,15.001,38.765-9.17,59.3c0,0,90.087,4.159,103.502-59.3h24.203
		c15.765,0,28.533-14.455,28.533-32.306V207.466C460.048,189.618,447.279,175.146,431.515,175.146z"/>
	<path fill="#FFFFFF" d="M208.211,245.93c0,0-4.198,90.289,3.134,95.004c0,0-6.813,5.242-20.432,0c0,0-7.352-8.392,0-99.621
		c0,0,0.513-28.948,0.513-31.564c0,0,15.215-3.669,22.536,0c0,0,4.208,1.575,8.919,14.676c0,0,16.779,112.01,58.708-3.026
		c0,0,6.536-8.195,19.946,0.523c0,0,2.081,1.554,2.081,9.693c0,0,0.54,30.675-4.185,58.985c0,0-2.592,37.169,4.209,52.671
		c0,0-0.536,5.532-12.082,2.387c0,0-11.534-6.292-9.969-36.18c0,0-2.009-8.508,5.339-58.313c0,0,1.359-4.948-0.745-2.86
		c0,0-15.237,42.193-33.08,45.35C253.102,293.655,226.163,298.516,208.211,245.93z"/>
	<path fill="#FFFFFF" d="M338.469,258.577c0,0-6.995-7.658-16.759-0.759c0,0-11.658,76.479,20.695,87.976
		c0,0,18.749,11.965,43.864-29.952c0,0-2.186,77.066-28.242,96.987c-1.918,1.47-7.714-5.308-9.54-5.536
		c-5.169-0.639-14.773,14.622-12.32,20.714c0,0,5.485,6.545,20.416,0.922c0,0,37.666-2.582,49.815-152.06
		c0,0-13.575-13.207-18.67-5.047c0,0-15.519,42.13-25.897,53.711c-8.461,9.434-24.338,11.5-22.597-26.552
		C339.71,288.621,343.582,261.301,338.469,258.577z"/>
</g>
</svg>
