<?xml version="1.0" encoding="utf-8"?>
<!-- Generator: Adobe Illustrator 17.0.0, SVG Export Plug-In . SVG Version: 6.00 Build 0)  -->
<!DOCTYPE svg PUBLIC "-//W3C//DTD SVG 1.1//EN" "http://www.w3.org/Graphics/SVG/1.1/DTD/svg11.dtd">
<svg version="1.1" id="Layer_1" xmlns="http://www.w3.org/2000/svg" xmlns:xlink="http://www.w3.org/1999/xlink" x="0px" y="0px"
	 width="3000px" height="3000px" viewBox="0 0 3000 3000" enable-background="new 0 0 3000 3000" xml:space="preserve">
<g>
	<path d="M729.831,2443.863h7.2l46.946,101.524h-8.209l-12.817-28.226h-59.474l-12.817,28.226h-7.776L729.831,2443.863z
		 M759.784,2510.394l-26.497-58.323l-26.641,58.323H759.784z"/>
	<path d="M862.891,2444.583h36.577c5.567,0,10.631,0.697,15.193,2.088c4.559,1.393,8.496,3.409,11.808,6.049
		c3.312,2.641,5.879,5.856,7.704,9.648c1.822,3.793,2.736,8.136,2.736,13.032v0.288c0,5.282-1.057,9.938-3.168,13.969
		c-2.113,4.032-4.968,7.394-8.569,10.08c-3.601,2.689-7.776,4.706-12.529,6.049c-4.752,1.346-9.769,2.016-15.048,2.016h-27.217
		v37.586h-7.488V2444.583z M898.029,2501.033c4.703,0,8.975-0.578,12.817-1.736c3.839-1.16,7.128-2.824,9.863-4.998
		c2.736-2.174,4.872-4.804,6.408-7.896c1.535-3.09,2.304-6.516,2.304-10.283v-0.29c0-4.055-0.744-7.603-2.232-10.646
		c-1.49-3.041-3.578-5.576-6.264-7.604c-2.689-2.028-5.905-3.573-9.649-4.636c-3.744-1.061-7.873-1.593-12.384-1.593h-28.513v49.682
		H898.029z"/>
	<path d="M1016.688,2444.583h36.577c5.567,0,10.632,0.697,15.192,2.088c4.559,1.393,8.497,3.409,11.808,6.049
		c3.312,2.641,5.88,5.856,7.704,9.648c1.823,3.793,2.736,8.136,2.736,13.032v0.288c0,5.282-1.057,9.938-3.168,13.969
		c-2.112,4.032-4.968,7.394-8.568,10.08c-3.6,2.689-7.776,4.706-12.529,6.049c-4.752,1.346-9.77,2.016-15.049,2.016h-27.217v37.586
		h-7.488V2444.583z M1051.826,2501.033c4.703,0,8.976-0.578,12.817-1.736c3.839-1.16,7.128-2.824,9.865-4.998
		c2.736-2.174,4.871-4.804,6.408-7.896c1.534-3.09,2.304-6.516,2.304-10.283v-0.29c0-4.055-0.746-7.603-2.233-10.646
		c-1.489-3.041-3.577-5.576-6.264-7.604c-2.688-2.028-5.903-3.573-9.648-4.636c-3.744-1.061-7.873-1.593-12.385-1.593h-28.513
		v49.682H1051.826z"/>
	<path d="M1170.486,2444.583h7.489v94.035h59.186v6.769h-66.675V2444.583z"/>
	<path d="M1318.234,2444.583h7.488v100.804h-7.488V2444.583z"/>
	<path d="M1459.933,2547.116c-7.2,0-13.874-1.346-20.017-4.033c-6.144-2.687-11.448-6.358-15.912-11.017
		c-4.465-4.654-7.946-10.151-10.441-16.488c-2.497-6.336-3.743-13.105-3.743-20.304v-0.288c0-7.104,1.27-13.825,3.816-20.162
		c2.542-6.335,6.047-11.88,10.512-16.632c4.464-4.751,9.768-8.496,15.912-11.232c6.143-2.736,12.864-4.104,20.161-4.104
		c4.511,0,8.591,0.385,12.24,1.152c3.648,0.77,7.032,1.872,10.152,3.312c3.119,1.44,6.049,3.146,8.785,5.112
		c2.736,1.968,5.4,4.154,7.993,6.552l-5.328,5.471c-2.21-2.11-4.514-4.08-6.913-5.903c-2.4-1.822-4.968-3.384-7.704-4.68
		c-2.736-1.296-5.713-2.327-8.929-3.097c-3.217-0.767-6.696-1.151-10.44-1.151c-6.048,0-11.664,1.151-16.848,3.455
		c-5.185,2.304-9.673,5.497-13.465,9.577c-3.794,4.081-6.768,8.857-8.929,14.328c-2.16,5.473-3.24,11.376-3.24,17.713v0.288
		c0,6.335,1.102,12.265,3.313,17.784c2.207,5.521,5.206,10.321,9,14.401c3.792,4.081,8.28,7.297,13.465,9.648
		c5.184,2.353,10.8,3.528,16.848,3.528c7.294,0,13.631-1.343,19.009-4.032c5.376-2.687,10.607-6.574,15.697-11.665l5.039,4.897
		c-2.688,2.592-5.449,4.968-8.28,7.128c-2.833,2.16-5.857,4.01-9.073,5.544c-3.217,1.537-6.696,2.737-10.44,3.601
		C1468.43,2546.684,1464.348,2547.116,1459.933,2547.116z"/>
	<path d="M1616.466,2443.863h7.2l46.946,101.524h-8.209l-12.817-28.226h-59.474l-12.817,28.226h-7.776L1616.466,2443.863z
		 M1646.419,2510.394l-26.496-58.323l-26.641,58.323H1646.419z"/>
	<path d="M1777.463,2451.351h-35.137v-6.768h77.763v6.768h-35.137v94.037h-7.488V2451.351z"/>
	<path d="M1901.451,2444.583h7.488v100.804h-7.488V2444.583z"/>
	<path d="M2043.583,2547.116c-7.682,0-14.617-1.418-20.809-4.25c-6.192-2.831-11.498-6.624-15.912-11.376
		c-4.417-4.751-7.826-10.247-10.224-16.488c-2.401-6.239-3.601-12.817-3.601-19.728v-0.288c0-6.913,1.224-13.512,3.673-19.801
		c2.448-6.287,5.879-11.831,10.296-16.632c4.415-4.8,9.743-8.616,15.984-11.449c6.24-2.83,13.199-4.248,20.881-4.248
		c7.583,0,14.495,1.417,20.737,4.248c6.239,2.833,11.567,6.625,15.984,11.376c4.415,4.753,7.823,10.25,10.224,16.488
		c2.399,6.243,3.601,12.817,3.601,19.73c0.095,0.097,0.095,0.194,0,0.288c0,6.912-1.224,13.514-3.672,19.801
		c-2.448,6.289-5.882,11.833-10.296,16.633c-4.417,4.801-9.77,8.617-16.056,11.448
		C2058.103,2545.698,2051.166,2547.116,2043.583,2547.116z M2043.871,2540.346c6.239,0,11.975-1.175,17.209-3.528
		c5.232-2.351,9.743-5.567,13.537-9.648c3.792-4.08,6.743-8.857,8.857-14.33c2.11-5.471,3.168-11.326,3.168-17.568v-0.288
		c0-6.24-1.08-12.119-3.24-17.641c-2.16-5.52-5.137-10.32-8.929-14.401c-3.794-4.08-8.33-7.319-13.609-9.721
		c-5.281-2.398-11.041-3.599-17.281-3.599c-6.242,0-11.977,1.177-17.208,3.528c-5.234,2.353-9.745,5.568-13.537,9.648
		c-3.794,4.081-6.745,8.857-8.856,14.328c-2.113,5.473-3.169,11.329-3.169,17.569v0.288c0,6.241,1.08,12.121,3.241,17.64
		c2.16,5.521,5.134,10.321,8.928,14.401c3.792,4.081,8.328,7.321,13.609,9.719
		C2031.869,2539.147,2037.63,2540.346,2043.871,2540.346z"/>
	<path d="M2177.507,2444.583h7.056l69.555,87.699v-87.699h7.2v100.804h-5.616l-70.995-89.572v89.572h-7.2V2444.583z"/>
	<path d="M2383.001,2546.828c-8.065,0-15.336-1.346-21.816-4.033c-6.48-2.687-12.745-6.719-18.793-12.096l4.896-5.617
		c2.783,2.593,5.544,4.826,8.28,6.696c2.736,1.872,5.545,3.41,8.425,4.609c2.88,1.202,5.904,2.113,9.073,2.736
		c3.168,0.625,6.624,0.936,10.368,0.936c3.744,0,7.2-0.503,10.368-1.512c3.168-1.008,5.855-2.398,8.064-4.177
		c2.207-1.775,3.936-3.889,5.184-6.335c1.247-2.448,1.872-5.112,1.872-7.993v-0.288c0-2.686-0.409-5.088-1.224-7.201
		c-0.817-2.11-2.304-4.031-4.464-5.759c-2.16-1.728-5.065-3.288-8.713-4.68c-3.65-1.39-8.352-2.665-14.113-3.816
		c-6.048-1.248-11.232-2.712-15.552-4.394c-4.32-1.678-7.848-3.646-10.584-5.903c-2.737-2.254-4.73-4.871-5.976-7.849
		c-1.249-2.974-1.872-6.384-1.872-10.224v-0.288c0-3.745,0.815-7.222,2.448-10.441c1.631-3.215,3.888-6.023,6.768-8.425
		c2.88-2.398,6.287-4.271,10.225-5.615c3.936-1.343,8.256-2.016,12.96-2.016c7.294,0,13.609,1.008,18.937,3.024
		s10.535,5.089,15.624,9.216l-4.752,5.905c-4.802-4.126-9.626-7.057-14.473-8.785c-4.849-1.728-10.057-2.591-15.624-2.591
		c-3.744,0-7.128,0.503-10.153,1.511c-3.024,1.008-5.616,2.375-7.776,4.104c-2.16,1.728-3.817,3.744-4.969,6.049
		c-1.152,2.303-1.728,4.751-1.728,7.344v0.288c0,2.689,0.407,5.112,1.224,7.272c0.814,2.16,2.304,4.128,4.464,5.904
		c2.16,1.778,5.159,3.385,9,4.824c3.839,1.44,8.735,2.786,14.689,4.033c11.711,2.401,20.161,5.785,25.345,10.153
		c5.184,4.369,7.777,10.248,7.777,17.641v0.288c0,4.032-0.842,7.753-2.521,11.159c-1.68,3.41-3.985,6.314-6.912,8.713
		c-2.93,2.401-6.433,4.274-10.512,5.617C2392.384,2546.155,2387.897,2546.828,2383.001,2546.828z"/>
</g>
<g>
	<g>
		<path d="M713.634,2296.557l-58.96-82.784h34.894l41.873,60.402l42.114-60.402h33.932l-58.719,82.302l61.125,86.153H775
			l-44.279-63.772l-44.521,63.772h-33.931L713.634,2296.557z"/>
		<path d="M1057.037,2213.772h125.139v26.711h-95.779v46.446h84.949v26.712h-84.949v68.585h-29.36V2213.772z"/>
		<path d="M1346.779,2212.569h27.434l74.121,169.659h-31.285l-17.086-40.67h-79.656l-17.327,40.67h-30.322L1346.779,2212.569z
			 M1389.133,2315.327l-29.119-67.383l-28.878,67.383H1389.133z"/>
		<path d="M1627.858,2385.115c-12.356,0-23.745-2.248-34.172-6.739c-10.431-4.489-19.478-10.625-27.145-18.41
			c-7.667-7.78-13.683-16.966-18.049-27.555c-4.366-10.589-6.546-21.898-6.546-33.931v-0.482c0-12.031,2.14-23.301,6.426-33.811
			c4.283-10.505,10.299-19.732,18.049-27.675c7.746-7.941,16.917-14.198,27.506-18.77c10.588-4.572,22.297-6.859,35.135-6.859
			c7.701,0,14.718,0.643,21.057,1.925c6.336,1.286,12.153,3.092,17.448,5.415c5.294,2.329,10.186,5.095,14.679,8.303
			c4.49,3.212,8.742,6.739,12.754,10.589l-19.011,21.9c-6.739-6.258-13.879-11.311-21.418-15.161
			c-7.543-3.85-16.124-5.776-25.75-5.776c-8.025,0-15.443,1.564-22.26,4.693c-6.821,3.128-12.717,7.382-17.688,12.755
			c-4.974,5.376-8.825,11.671-11.551,18.892c-2.729,7.219-4.091,14.92-4.091,23.102v0.48c0,8.183,1.361,15.925,4.091,23.224
			c2.726,7.302,6.577,13.679,11.551,19.132c4.971,5.456,10.867,9.745,17.688,12.874c6.817,3.13,14.236,4.694,22.26,4.694
			c10.265,0,19.09-1.964,26.472-5.896c7.377-3.929,14.679-9.265,21.899-16.003l19.011,19.252
			c-4.331,4.654-8.866,8.784-13.596,12.393c-4.734,3.61-9.829,6.739-15.281,9.387c-5.456,2.646-11.431,4.655-17.929,6.015
			C1642.898,2384.431,1635.716,2385.115,1627.858,2385.115z"/>
		<path d="M1840.591,2241.206h-53.424v-27.433h136.69v27.433h-53.425v141.022h-29.841V2241.206z"/>
		<path d="M2107.713,2385.115c-12.995,0-24.869-2.286-35.616-6.859c-10.75-4.573-19.974-10.788-27.675-18.65
			c-7.701-7.859-13.717-17.045-18.049-27.554c-4.331-10.507-6.498-21.696-6.498-33.571v-0.482c0-11.87,2.166-23.061,6.498-33.57
			c4.332-10.507,10.427-19.734,18.29-27.675c7.859-7.943,17.165-14.237,27.916-18.892c10.746-4.651,22.621-6.979,35.616-6.979
			c12.995,0,24.866,2.286,35.616,6.859c10.747,4.573,19.974,10.791,27.675,18.65c7.702,7.862,13.717,17.049,18.05,27.555
			c4.332,10.51,6.498,21.699,6.498,33.571v0.48c0,11.875-2.166,23.066-6.498,33.571c-4.332,10.51-10.431,19.734-18.29,27.675
			c-7.863,7.942-17.169,14.24-27.916,18.892C2132.579,2382.788,2120.708,2385.115,2107.713,2385.115z M2108.194,2357.923
			c8.306,0,15.936-1.564,22.885-4.694c6.948-3.128,12.897-7.377,17.85-12.754c4.952-5.373,8.825-11.671,11.623-18.892
			c2.798-7.219,4.196-14.92,4.196-23.102v-0.482c0-8.181-1.398-15.92-4.196-23.222c-2.798-7.298-6.712-13.634-11.744-19.012
			c-5.031-5.373-11.062-9.663-18.09-12.874c-7.032-3.209-14.698-4.814-23.005-4.814c-8.31,0-15.936,1.564-22.884,4.693
			c-6.949,3.128-12.901,7.382-17.853,12.755c-4.952,5.376-8.825,11.671-11.623,18.892c-2.798,7.219-4.192,14.92-4.192,23.102v0.48
			c0,8.183,1.395,15.925,4.192,23.224c2.798,7.302,6.712,13.638,11.743,19.01c5.031,5.378,11.062,9.668,18.094,12.875
			C2092.217,2356.32,2099.885,2357.923,2108.194,2357.923z"/>
		<path d="M2304.081,2213.772h75.083c10.589,0,19.974,1.485,28.156,4.451c8.182,2.972,15,7.1,20.455,12.395
			c4.49,4.655,7.942,10.028,10.348,16.124c2.406,6.099,3.61,12.837,3.61,20.214v0.482c0,6.9-1.004,13.115-3.008,18.65
			c-2.008,5.535-4.775,10.431-8.303,14.68c-3.531,4.253-7.742,7.862-12.634,10.829c-4.896,2.97-10.31,5.256-16.244,6.859
			l45.483,63.772h-34.895l-41.52-58.718h-0.481h-36.692v58.718h-29.36V2213.772z M2376.893,2297.277
			c10.619,0,19.068-2.534,25.344-7.61c6.276-5.077,9.416-11.965,9.416-20.666v-0.482c0-9.183-3.061-16.154-9.175-20.907
			c-6.115-4.752-14.725-7.129-25.829-7.129h-43.208v56.793H2376.893z"/>
	</g>
	<rect x="888.563" y="2284.912" width="63.819" height="26.462"/>
</g>
<g>
	<polygon points="2029.063,1057.938 2229.097,1057.938 2369.711,853.547 1669.114,853.547 1542.1,1005.333 1153.41,539.277 
		633.683,539.277 1275.197,1324.291 633.683,2090 1180.653,2090 1541.737,1650.454 1900.509,2090 2447.479,2090 1809.06,1325.429 	
		"/>
	<polygon points="2587.529,539.277 1928.818,539.277 1734.973,779.592 2420.973,779.592 	"/>
</g>
</svg>
