<?xml version="1.0" standalone="no"?>
<!DOCTYPE svg PUBLIC "-//W3C//DTD SVG 1.1//EN" "http://www.w3.org/Graphics/SVG/1.1/DTD/svg11.dtd" >
<svg xmlns="http://www.w3.org/2000/svg">
<metadata></metadata>
<defs>
<font id="crystal_decoregular" horiz-adv-x="750" >
<font-face units-per-em="2048" ascent="1638" descent="-410" />
<missing-glyph horiz-adv-x="508" />
<glyph horiz-adv-x="2048" />
<glyph horiz-adv-x="2048" />
<glyph unicode="&#xd;" horiz-adv-x="508" />
<glyph unicode=" "  horiz-adv-x="508" />
<glyph unicode="&#x09;" horiz-adv-x="508" />
<glyph unicode="&#xa0;" horiz-adv-x="508" />
<glyph unicode="!" horiz-adv-x="350" d="M0 0v300h200v-300h-200zM0 500v650h200v-650h-200z" />
<glyph unicode="&#x22;" horiz-adv-x="700" d="M0 1150v50l250 -100l-150 -450zM300 1150v50l250 -100l-150 -450z" />
<glyph unicode="#" horiz-adv-x="850" d="M0 300v200h100v100h-100v200h100v100h200v-100h100v100h200v-100h100v-200h-100v-100h100v-200h-100v-100h-200v100h-100v-100h-200v100h-100zM300 500h100v100h-100v-100z" />
<glyph unicode="$" horiz-adv-x="800" d="M0 50v200q90 0 161 6l51 252q-212 62 -212 292q0 256 329 293l21 107h200l-20 -100h70v-201h-110l-47 -236q206 -82 206 -311v-2q0 -212 -324 -274l-25 -126h-200l21 103q-58 -3 -121 -3zM200 800q0 -72 51 -93l36 176q-87 -24 -87 -83zM370 301q78 36 78 98v3 q0 46 -44 70z" />
<glyph unicode="%" horiz-adv-x="850" d="M0 850v25q0 275 150 275t150 -275v-25q0 -275 -150 -275t-150 275zM50 0l400 1150h200l-400 -1150h-200zM100 850q0 -175 50 -175t50 175v25q0 175 -50 175t-50 -175v-25zM400 275v25q0 275 150 275t150 -275v-25q0 -275 -150 -275t-150 275zM500 275q0 -175 50 -175 t50 175v25q0 175 -50 175t-50 -175v-25z" />
<glyph unicode="&#x26;" horiz-adv-x="850" d="M0 300v100q0 201 100 275q-100 0 -100 226q0 249 250 249t250 -250q0 -112 -20 -168q52 18 120 18v-200q-100 0 -100 -150v-50q0 -150 100 -150h100v-200h-100q-115 0 -186 51q-61 -51 -164 -51q-250 0 -250 300zM199 901q1 -101 51 -101t50 100q0 50 -50 50t-51 -49z M200 400l1 -100v-4q0 -96 49 -96q50 0 50 100v100q0 150 -50 150t-50 -150z" />
<glyph unicode="'" horiz-adv-x="400" d="M0 1150v50l250 -100l-150 -450z" />
<glyph unicode="(" horiz-adv-x="500" d="M0 450v250q0 550 300 550h50v-201l-50 1q-100 0 -100 -350v-250q0 -350 100 -350h50v-200h-50q-300 0 -300 550z" />
<glyph unicode=")" horiz-adv-x="500" d="M0 -100v200h50q100 0 100 350v250q0 350 -100 350l-50 -1v201h50q300 0 300 -550v-250q0 -550 -300 -550h-50z" />
<glyph unicode="*" horiz-adv-x="450" d="M0 1000h144l56 150l56 -150h144l-113 -81l63 -169l-150 107l-150 -107l63 169z" />
<glyph unicode="+" horiz-adv-x="650" d="M0 350v200h150v150h200v-150h150v-200h-150v-150h-200v150h-150z" />
<glyph unicode="," horiz-adv-x="400" d="M0 250v50l250 -100l-150 -450z" />
<glyph unicode="-" horiz-adv-x="650" d="M0 350v200h500v-200h-500z" />
<glyph unicode="." horiz-adv-x="350" d="M0 0v300h200v-300h-200z" />
<glyph unicode="/" d="M0 0l400 1150h200l-400 -1150h-200z" />
<glyph unicode="0" d="M0 550v50q0 550 300 550t300 -550v-50q0 -550 -300 -550t-300 550zM200 550q0 -350 100 -350t100 350v50q0 350 -100 350t-100 -350v-50z" />
<glyph unicode="1" horiz-adv-x="350" d="M-50 950v200h250v-1150h-200v950h-50z" />
<glyph unicode="2" d="M0 0q0 550 300 600q100 50 100 150v50q0 150 -200 150h-100v200h100q400 0 400 -350v-50q0 -250 -250 -350q-150 -50 -150 -200h400v-200h-600z" />
<glyph unicode="3" d="M0 300h201v-2q0 -98 99 -98q100 0 100 200q0 250 -250 300l150 250h-250l-1 200h551l-200 -350q200 -150 200 -400q0 -400 -300 -400t-300 300z" />
<glyph unicode="4" horiz-adv-x="800" d="M0 350v200l175 300l175 300h200v-600h100v-200h-100v-350h-200v350h-350zM213 550h137v244z" />
<glyph unicode="5" horiz-adv-x="700" d="M0 0v200q350 0 350 200q-1 150 -101 150h-249v600h550v-200h-350v-200h99q251 0 251 -350q0 -400 -550 -400z" />
<glyph unicode="6" horiz-adv-x="800" d="M0 550v50q0 550 400 550l51 1v-201h-51q-156 0 -190 -213q440 -109 440 -437q0 -300 -300 -300q-350 0 -350 550zM200 532q4 -332 150 -332q100 0 100 100q0 137 -250 232z" />
<glyph unicode="7" d="M0 950v200h600l-157 -600h57v-200h-109l-91 -350h-200l92 350h-92v200h145l105 400h-350z" />
<glyph unicode="8" d="M0 300v100q0 201 150 275q-100 0 -100 226q0 249 250 249t250 -250q0 -225 -82 -225q132 -76 132 -275v-100q0 -300 -300 -300t-300 300zM200 400l1 -100v-2q0 -98 99 -98q100 0 100 100v100q0 150 -100 150t-100 -150zM249 901q1 -101 51 -101t50 100q0 50 -50 50 t-51 -49z" />
<glyph unicode="9" horiz-adv-x="800" d="M0 851q0 300 300 300q350 0 350 -550v-50q0 -550 -400 -550l-51 -1v201h51q156 0 190 213q-440 109 -440 437zM200 851q0 -137 250 -232q-4 332 -150 332q-100 0 -100 -100z" />
<glyph unicode=":" horiz-adv-x="350" d="M0 0v300h200v-300h-200zM0 500v300h200v-300h-200z" />
<glyph unicode=";" horiz-adv-x="400" d="M0 250v50l250 -100l-150 -450zM0 500v300h200v-300h-200z" />
<glyph unicode="&#x3c;" horiz-adv-x="650" d="M0 350v200l500 200v-200l-250 -100l250 -100v-200z" />
<glyph unicode="=" horiz-adv-x="650" d="M0 150v200h500v-200h-500zM0 550v200h500v-200h-500z" />
<glyph unicode="&#x3e;" horiz-adv-x="650" d="M0 150v200l250 100l-250 100v200l500 -200v-200z" />
<glyph unicode="?" d="M0 950v200h200q400 0 400 -300t-250 -300q-50 0 -50 -100h-200q0 300 200 300q100 0 100 100t-200 100h-200zM100 0v300h200v-300h-200z" />
<glyph unicode="@" horiz-adv-x="950" d="M0 550v50q0 550 300 550h200q300 0 300 -550v-50q0 -200 -200 -200h-100q-200 0 -200 200v100q0 200 150 200h128q-25 100 -78 100h-200q-100 0 -100 -350v-50q0 -350 100 -350h453l-3 -200h-450q-300 0 -300 550z" />
<glyph unicode="A" horiz-adv-x="850" d="M0 0l250 1150h200l250 -1150h-200l-43 200h-214l-43 -200h-200zM287 400h126l-63 290z" />
<glyph unicode="B" d="M0 0v1150h200q350 0 350 -250q0 -200 -82 -200q132 -101 132 -300v-100q0 -300 -400 -300h-200zM200 200q200 0 200 100v100q0 200 -200 200v-400zM200 800h50q100 0 100 100q0 49 -144 49h-6v-149z" />
<glyph unicode="C" horiz-adv-x="600" d="M0 550v50q0 550 400 550l51 1v-201h-51q-200 0 -200 -350v-50q0 -350 200 -350h50v-200h-50q-400 0 -400 550z" />
<glyph unicode="D" d="M0 0v1150h200q400 0 400 -550v-50q0 -550 -400 -550h-200zM200 200q200 0 200 350v50q0 350 -200 350v-750z" />
<glyph unicode="E" horiz-adv-x="650" d="M-50 350v200h50v600h500v-200h-300v-400h200v-200h-200v-150h300v-200h-500v350h-50z" />
<glyph unicode="F" horiz-adv-x="650" d="M-50 350v200h50v600h500v-200h-300v-400h200v-200h-200v-350h-200v350h-50z" />
<glyph unicode="G" horiz-adv-x="800" d="M0 550v50q0 550 400 550l100 1v-201h-100q-200 0 -200 -350v-50q0 -350 200 -350h50v150q0 100 -100 100h-50v200h150q200 0 200 -200v-450h-250q-400 0 -400 550z" />
<glyph unicode="H" d="M-50 350v200h50v600h200v-600h200v600h200v-1150h-200v350h-200v-350h-200v350h-50z" />
<glyph unicode="I" horiz-adv-x="350" d="M0 0v1150h200v-1150h-200z" />
<glyph unicode="J" horiz-adv-x="600" d="M1 0v200h50q200 0 200 350v600h199v-603q0 -547 -399 -547h-50z" />
<glyph unicode="K" d="M0 0v1150h200v-350l200 350h200l-250 -450l250 -700h-200l-200 600v-600h-200z" />
<glyph unicode="L" horiz-adv-x="600" d="M0 0v1150h200v-950h250v-200h-450z" />
<glyph unicode="M" horiz-adv-x="950" d="M0 0v1150l400 -600l400 600v-1150h-200v550l-200 -300l-200 300v-550h-200z" />
<glyph unicode="N" d="M0 0v1150l400 -550v550h200v-1150l-400 550v-550h-200z" />
<glyph unicode="O" d="M0 550v50q0 550 300 550t300 -550v-50q0 -550 -300 -550t-300 550zM200 550q0 -350 100 -350t100 350v50q0 350 -100 350t-100 -350v-50z" />
<glyph unicode="P" d="M0 0v1150h200q400 0 400 -300v-100q0 -300 -400 -450v-300h-200zM200 500q200 50 200 250v100q0 100 -200 100v-450z" />
<glyph unicode="Q" d="M0 550v50q0 550 300 550t300 -550v-50q0 -186 -34 -309q34 -98 34 -241v-100h-200v118q-45 -18 -100 -18q-300 0 -300 550zM200 550q0 -350 100 -350q29 0 50 30q-36 85 -100 170h144q6 65 6 150v50q0 350 -100 350t-100 -350v-50z" />
<glyph unicode="R" d="M0 0v1150h200q400 0 400 -300v-100q0 -187 -156 -316q156 -81 156 -434h-200q0 224 -94 346q-49 -25 -106 -46v-300h-200zM200 500q200 50 200 250v100q0 100 -200 100v-450z" />
<glyph unicode="S" horiz-adv-x="650" d="M0 0v200q299 0 299 199v1q0 50 -99 100q-200 50 -200 300q0 350 400 350l51 1v-201h-51q-200 0 -200 -150q0 -70 50 -100q250 -100 250 -350q0 -350 -500 -350z" />
<glyph unicode="T" d="M0 950v200h600v-200h-200v-950h-200v950h-200z" />
<glyph unicode="U" d="M0 300v850h200v-800q0 -150 100 -150t100 150v800h200v-850q0 -300 -250 -300h-100q-250 0 -250 300z" />
<glyph unicode="V" horiz-adv-x="850" d="M0 1150h200l150 -690l150 690h200l-250 -1150h-200z" />
<glyph unicode="W" horiz-adv-x="1350" d="M0 1150h200l150 -690l150 690h200l150 -690l150 690h200l-250 -1150h-200l-150 690l-150 -690h-200z" />
<glyph unicode="X" d="M0 0l200 575l-200 575h200l100 -287l100 287h200l-200 -575l200 -575h-200l-100 288l-100 -288h-200z" />
<glyph unicode="Y" horiz-adv-x="850" d="M0 1150h200l150 -400l150 400h200l-250 -660v-490h-200v490z" />
<glyph unicode="Z" d="M0 0l300 950h-300v200h600l-300 -950h300v-200h-600z" />
<glyph unicode="[" horiz-adv-x="600" d="M0 -100v1350h350v-200h-150v-950h150v-200h-350z" />
<glyph unicode="\" horiz-adv-x="850" d="M0 1150h200l400 -1150h-200z" />
<glyph unicode="]" horiz-adv-x="600" d="M0 -100v200h150v950h-150v200h350v-1350h-350z" />
<glyph unicode="^" d="M0 1200l200 300h200l200 -300h-200l-100 150l-100 -150h-200z" />
<glyph unicode="_" horiz-adv-x="950" d="M0 -150h950v-200h-950v200z" />
<glyph unicode="`" horiz-adv-x="400" d="M0 1650l250 100v-50l-100 -500z" />
<glyph unicode="a" horiz-adv-x="680" d="M0 0l200 920h160l200 -920h-160l-34 160h-172l-34 -160h-160zM230 320h100l-50 232z" />
<glyph unicode="b" horiz-adv-x="600" d="M0 0v920h160q280 0 280 -200q0 -160 -66 -160q106 -81 106 -240v-80q0 -240 -320 -240h-160zM160 160q160 0 160 80v80q0 160 -160 160v-320zM160 640h40q80 0 80 80q0 39 -114 39h-6v-119z" />
<glyph unicode="c" horiz-adv-x="480" d="M0 440v40q0 440 320 440l41 1v-161h-41q-160 0 -160 -280v-40q0 -280 160 -280h40v-160h-40q-320 0 -320 440z" />
<glyph unicode="d" horiz-adv-x="600" d="M0 0v920h160q320 0 320 -440v-40q0 -440 -320 -440h-160zM160 160q160 0 160 280v40q0 280 -160 280v-600z" />
<glyph unicode="e" horiz-adv-x="520" d="M-40 280v160h40v480h400v-160h-240v-320h160v-160h-160v-120h240v-160h-400v280h-40z" />
<glyph unicode="f" horiz-adv-x="520" d="M-40 280v160h40v480h400v-160h-240v-320h160v-160h-160v-280h-160v280h-40z" />
<glyph unicode="g" horiz-adv-x="640" d="M0 440v40q0 440 320 440l80 1v-161h-80q-160 0 -160 -280v-40q0 -280 160 -280h40v120q0 80 -80 80h-40v160h120q160 0 160 -160v-360h-200q-320 0 -320 440z" />
<glyph unicode="h" horiz-adv-x="600" d="M-40 280v160h40v480h160v-480h160v480h160v-920h-160v280h-160v-280h-160v280h-40z" />
<glyph unicode="i" horiz-adv-x="280" d="M0 0v920h160v-920h-160z" />
<glyph unicode="j" horiz-adv-x="480" d="M1 0v160h40q160 0 160 280v480h159v-483q0 -437 -319 -437h-40z" />
<glyph unicode="k" horiz-adv-x="600" d="M0 0v920h160v-280l160 280h160l-200 -360l200 -560h-160l-160 480v-480h-160z" />
<glyph unicode="l" horiz-adv-x="480" d="M0 0v920h160v-760h200v-160h-360z" />
<glyph unicode="m" horiz-adv-x="760" d="M0 0v920l320 -480l320 480v-920h-160v440l-160 -240l-160 240v-440h-160z" />
<glyph unicode="n" horiz-adv-x="600" d="M0 0v920l320 -440v440h160v-920l-320 440v-440h-160z" />
<glyph unicode="o" horiz-adv-x="600" d="M0 440v40q0 440 240 440t240 -440v-40q0 -440 -240 -440t-240 440zM160 440q0 -280 80 -280t80 280v40q0 280 -80 280t-80 -280v-40z" />
<glyph unicode="p" horiz-adv-x="600" d="M0 0v920h160q320 0 320 -240v-80q0 -240 -320 -360v-240h-160zM160 400q160 40 160 200v80q0 80 -160 80v-360z" />
<glyph unicode="q" horiz-adv-x="600" d="M0 440v40q0 440 240 440t240 -440v-40q0 -149 -27 -247q27 -79 27 -193v-80h-160v94q-36 -14 -80 -14q-240 0 -240 440zM160 440q0 -280 80 -280q23 0 40 24q-29 68 -80 136h115q5 52 5 120v40q0 280 -80 280t-80 -280v-40z" />
<glyph unicode="r" horiz-adv-x="600" d="M0 0v920h160q320 0 320 -240v-80q0 -150 -125 -253q125 -65 125 -347h-160q0 179 -75 277q-39 -20 -85 -37v-240h-160zM160 400q160 40 160 200v80q0 80 -160 80v-360z" />
<glyph unicode="s" horiz-adv-x="520" d="M0 0v160q239 0 239 159v1q0 40 -79 80q-160 40 -160 240q0 280 320 280l41 1v-161h-41q-160 0 -160 -120q0 -56 40 -80q200 -80 200 -280q0 -280 -400 -280z" />
<glyph unicode="t" horiz-adv-x="600" d="M0 760v160h480v-160h-160v-760h-160v760h-160z" />
<glyph unicode="u" horiz-adv-x="600" d="M0 240v680h160v-640q0 -120 80 -120t80 120v640h160v-680q0 -240 -200 -240h-80q-200 0 -200 240z" />
<glyph unicode="v" horiz-adv-x="680" d="M0 920h160l120 -552l120 552h160l-200 -920h-160z" />
<glyph unicode="w" horiz-adv-x="1080" d="M0 920h160l120 -552l120 552h160l120 -552l120 552h160l-200 -920h-160l-120 552l-120 -552h-160z" />
<glyph unicode="x" horiz-adv-x="600" d="M0 0l160 460l-160 460h160l80 -230l80 230h160l-160 -460l160 -460h-160l-80 230l-80 -230h-160z" />
<glyph unicode="y" horiz-adv-x="680" d="M0 920h160l120 -320l120 320h160l-200 -528v-392h-160v392z" />
<glyph unicode="z" horiz-adv-x="600" d="M0 0l240 760h-240v160h480l-240 -760h240v-160h-480z" />
<glyph unicode="{" horiz-adv-x="600" d="M-100 550l100 150v350q0 200 200 200h150v-200h-100q-49 0 -50 -50v-300l-100 -150l100 -150v-250q0 -49 50 -50h100v-200h-150q-199 0 -200 200v301z" />
<glyph unicode="|" horiz-adv-x="350" d="M0 -100v1350h200v-1350h-200z" />
<glyph unicode="}" horiz-adv-x="600" d="M-100 -100v200h100q50 1 50 50v250l100 150l-100 150v300q0 50 -50 50h-100v200h150q200 0 200 -200v-350l100 -150l-100 -149l1 -301q-1 -200 -201 -200h-150z" />
<glyph unicode="~" horiz-adv-x="650" d="M0 1188v206q100 100 150 100t100 -50t100 -50q100 0 150 106v-206q-50 -100 -150 -100q-50 0 -100 50t-100 50t-150 -106z" />
<glyph unicode="&#xa1;" horiz-adv-x="450" d="M0 0v650h200v-650h-200zM0 850v300h200v-300h-200z" />
<glyph unicode="&#xa2;" horiz-adv-x="700" d="M0 500q0 384 291 440l9 60h200l-7 -49h57v-201h-87l-75 -500h162v-200h-150q-22 0 -42 1l-8 -51h-200l16 107q-166 103 -166 393zM200 500q0 -56 10 -100l44 292q-54 -62 -54 -192z" />
<glyph unicode="&#xa3;" d="M0 0v200h50q100 0 100 100v50h-150v200h150v350q0 250 250 250h150v-200h-100q-100 0 -100 -150v-250h150v-200h-150v-150h250v-200h-600z" />
<glyph unicode="&#xa4;" horiz-adv-x="1014" d="M122 413l118 117q-32 46 -48 103q-12 42 -12 84q0 44 13 87q16 55 47 99l-118 118l80 81l118 -118q44 30 99 46q44 14 89 14q41 0 83 -12q57 -17 102 -48l118 118l80 -81l-117 -117q31 -46 48 -102q12 -42 12 -85q0 -42 -12 -85q-17 -56 -48 -102l117 -117l-80 -81 l-118 118q-45 -32 -101 -48q-42 -12 -85 -12q-42 0 -85 12q-57 16 -102 48l-118 -118zM284 716q0 -28 9 -56q16 -59 57 -100q41 -40 99 -57q29 -8 58 -8t58 8q58 17 99 57q40 41 57 99q9 29 9 58t-9 58q-17 58 -57 99q-41 40 -100 57q-29 8 -58 8t-58 -9q-58 -17 -98 -56 q-39 -40 -56 -98q-10 -30 -10 -60z" />
<glyph unicode="&#xa5;" horiz-adv-x="850" d="M0 1150h200l150 -400l150 400h200l-189 -500h139v-200h-200v-100h200v-200h-200v-150h-200v150h-200v200h200v100h-200v200h139z" />
<glyph unicode="&#xa6;" horiz-adv-x="350" d="M0 -100v550h200v-550h-200zM0 700v550h200v-550h-200z" />
<glyph unicode="&#xa7;" horiz-adv-x="1014" d="M170 1130q0 148 89 237q82 79 216 86q8 1 17 1h3q66 0 163 -16.5t97 -41.5v-194h-51q-5 81 -80 132q-70 47 -149 51h-15q-78 0 -125 -44.5t-47 -117.5q0 -132 287 -269q149 -67 204.5 -143.5t55.5 -187.5q0 -171 -101 -282q-47 -39 -99 -64q108 -56 154 -118 q55 -77 55 -187q0 -171 -101 -283q-124 -102 -277 -105v1q-6 -1 -13 -1h-3q-66 0 -163 16.5t-97 41.5v194h51q5 -81 80 -132q68 -45 145 -50q113 6 185 69q72 64 72 165q0 125 -316 276q-123 64 -175.5 137t-52.5 177q0 148 89 237q67 65 170 82l-40 19q-123 64 -175.5 137 t-52.5 177zM297 571q0 -123 248 -250q56 16 97 53q73 65 73 166q0 5 -1 10h-2q-1 14 -4 27q-22 61 -113 127q-59 29 -126 29q-78 0 -125 -44.5t-47 -117.5z" />
<glyph unicode="&#xa8;" horiz-adv-x="800" d="M0 1200v300h200v-300h-200zM350 1200v300h200v-300h-200z" />
<glyph unicode="&#xa9;" horiz-adv-x="950" d="M0 550v50q0 550 300 550h200q300 0 300 -550v-50q0 -550 -300 -550h-200q-300 0 -300 550zM200 550q0 -350 100 -350h200q100 0 100 350v50q0 350 -100 350h-200q-100 0 -100 -350v-50zM274 575v25q0 275 200 275l26 1v-101h-26q-100 0 -100 -175v-25q0 -175 100 -175h25 v-100h-25q-200 0 -200 275z" />
<glyph unicode="&#xaa;" horiz-adv-x="425" d="M0 575l125 575h100l125 -575h-100l-21 100h-107l-22 -100h-100zM144 775h63l-32 145z" />
<glyph unicode="&#xab;" horiz-adv-x="944" d="M174 479l342 303h14v-37l-205 -266l205 -266v-37h-14zM487 479l342 303h14v-37l-205 -266l205 -266v-37h-14z" />
<glyph unicode="&#xac;" horiz-adv-x="1014" d="M87 667v100h840v-491l-1 -1h-98v392h-741z" />
<glyph unicode="&#xad;" horiz-adv-x="650" d="M0 350v200h500v-200h-500z" />
<glyph unicode="&#xae;" horiz-adv-x="950" d="M0 550v50q0 550 300 550h200q300 0 300 -550v-50q0 -550 -300 -550h-200q-300 0 -300 550zM200 550q0 -350 100 -350h200q100 0 100 350v50q0 350 -100 350h-200q-100 0 -100 -350v-50zM250 300v575h100q200 0 200 -150v-50q0 -93 -78 -158q78 -40 78 -217h-100 q0 112 -47 173q-24 -12 -53 -23v-150h-100zM350 550q100 25 100 125v50q0 50 -100 50v-225z" />
<glyph unicode="&#xaf;" horiz-adv-x="950" d="M0 950v200h950v-200h-950z" />
<glyph unicode="&#xb0;" horiz-adv-x="674" d="M60 1164q0 116 81.5 197t197.5 81q115 0 196 -81.5t81 -196.5q0 -114 -82 -196t-197 -82q-117 0 -197 81t-80 197zM130 1163q0 -87 61 -147t148 -60t147 60t60 147t-60.5 148t-146.5 61t-147.5 -61t-61.5 -148z" />
<glyph unicode="&#xb1;" horiz-adv-x="650" d="M0 150v200h500v-200h-500zM0 550v200h150v150h200v-150h150v-200h-150v-150h-200v150h-150z" />
<glyph unicode="&#xb2;" horiz-adv-x="375" d="M0 575q0 275 150 300q50 25 50 75v25q0 75 -100 75h-50v100h50q200 0 200 -175v-25q0 -125 -125 -175q-75 -25 -75 -100h200v-100h-300z" />
<glyph unicode="&#xb3;" horiz-adv-x="375" d="M0 725h101v-1q0 -49 49 -49q50 0 50 100q0 125 -125 150l75 125h-125v100h275l-100 -175q100 -75 100 -200q0 -200 -150 -200t-150 150z" />
<glyph unicode="&#xb4;" horiz-adv-x="400" d="M0 1700v50l250 -100l-150 -450z" />
<glyph unicode="&#xb5;" d="M0 -300v1450h200v-801q0 -149 100 -149t100 150v800h200v-850q0 -300 -250 -300h-100q-26 0 -50 3v-303h-200z" />
<glyph unicode="&#xb6;" horiz-adv-x="1024" d="M93 1086q0 157 107.5 253t285.5 96h443v-70h-127v-1365h-82v1365h-166v-1365h-84v738q-174 8 -275.5 102.5t-101.5 245.5z" />
<glyph unicode="&#xb7;" horiz-adv-x="350" d="M0 500v300h200v-300h-200z" />
<glyph unicode="&#xb8;" horiz-adv-x="500" d="M0 -100h50q99 0 99 100h201q0 -300 -300 -300h-50v200z" />
<glyph unicode="&#xb9;" horiz-adv-x="175" d="M-25 1050v100h125v-575h-100v475h-25z" />
<glyph unicode="&#xba;" horiz-adv-x="375" d="M0 850v25q0 275 150 275t150 -275v-25q0 -275 -150 -275t-150 275zM100 850q0 -175 50 -175t50 175v25q0 175 -50 175t-50 -175v-25z" />
<glyph unicode="&#xbb;" horiz-adv-x="944" d="M101 176v37l205 266l-205 266v37h14l342 -303l-342 -303h-14zM414 176v37l205 266l-205 266v37h14l342 -303l-342 -303h-14z" />
<glyph unicode="&#xbc;" horiz-adv-x="850" d="M50 0l400 1150h200l-400 -1150h-200zM100 1050v100h125v-575h-100v475h-25zM375 175v100l88 150l87 150h100v-300h50v-100h-50v-175h-100v175h-175zM482 275h68v122z" />
<glyph unicode="&#xbd;" horiz-adv-x="876" d="M50 0l400 1150h200l-400 -1150h-200zM100 1050v100h125v-575h-100v475h-25zM427 0q0 275 150 300q50 25 50 75v25q0 75 -100 75h-50v100h50q200 0 200 -175v-25q0 -125 -125 -175q-75 -25 -75 -100h200v-100h-300z" />
<glyph unicode="&#xbe;" horiz-adv-x="900" d="M0 725h101v-1q0 -49 49 -49q50 0 50 100q0 125 -125 150l75 125h-125v100h275l-100 -175q100 -75 100 -200q0 -200 -150 -200t-150 150zM100 0l400 1150h200l-400 -1150h-200zM425 175v100l88 150l87 150h100v-300h50v-100h-50v-175h-100v175h-175zM532 275h68v122z" />
<glyph unicode="&#xbf;" d="M0 300q0 300 250 300q50 0 50 100h200q0 -300 -200 -300q-100 0 -100 -100t200 -100h200v-200h-200q-400 0 -400 300zM300 850v300h200v-300h-200z" />
<glyph unicode="&#xc0;" horiz-adv-x="850" d="M0 0l250 1150h200l250 -1150h-200l-43 200h-214l-43 -200h-200zM200 1650l250 100v-50l-100 -500zM287 400h126l-63 290z" />
<glyph unicode="&#xc1;" horiz-adv-x="850" d="M0 0l250 1150h200l250 -1150h-200l-43 200h-214l-43 -200h-200zM250 1700v50l250 -100l-150 -450zM287 400h126l-63 290z" />
<glyph unicode="&#xc2;" horiz-adv-x="850" d="M0 0l250 1150h200l250 -1150h-200l-43 200h-214l-43 -200h-200zM50 1200l200 300h200l200 -300h-200l-100 150l-100 -150h-200zM287 400h126l-63 290z" />
<glyph unicode="&#xc3;" horiz-adv-x="850" d="M0 0l250 1150h200l250 -1150h-200l-43 200h-214l-43 -200h-200zM100 1188v206q100 100 150 100t100 -50t100 -50q100 0 150 106v-206q-50 -100 -150 -100q-50 0 -100 50t-100 50t-150 -106zM287 400h126l-63 290z" />
<glyph unicode="&#xc4;" horiz-adv-x="850" d="M0 0l250 1150h200l250 -1150h-200l-43 200h-214l-43 -200h-200zM75 1200v300h200v-300h-200zM287 400h126l-63 290zM425 1200v300h200v-300h-200z" />
<glyph unicode="&#xc5;" horiz-adv-x="850" d="M0 0l250 1150h200l250 -1150h-200l-43 200h-214l-43 -200h-200zM250 1200v300h200v-300h-200zM287 400h126l-63 290z" />
<glyph unicode="&#xc6;" horiz-adv-x="1150" d="M0 0l250 1150h200l50 -230v230h500v-200h-300v-400h200v-200h-200v-150h300v-200h-500l-43 200h-214l-43 -200h-200zM287 400h126l-63 290z" />
<glyph unicode="&#xc7;" horiz-adv-x="600" d="M0 550v50q0 550 400 550l51 1v-201h-51q-200 0 -200 -350v-50q0 -350 200 -350h50v-200h-59q-44 -300 -290 -300h-50v200h50q77 0 95 150q-196 115 -196 500z" />
<glyph unicode="&#xc8;" horiz-adv-x="650" d="M-50 350v200h50v600h500v-200h-300v-400h200v-200h-200v-150h300v-200h-500v350h-50zM150 1650l250 100v-50l-100 -500z" />
<glyph unicode="&#xc9;" horiz-adv-x="650" d="M-50 350v200h50v600h500v-200h-300v-400h200v-200h-200v-150h300v-200h-500v350h-50zM200 1700v50l250 -100l-150 -450z" />
<glyph unicode="&#xca;" horiz-adv-x="650" d="M-50 350v200h50v600h500v-200h-300v-400h200v-200h-200v-150h300v-200h-500v350h-50zM-50 1200l200 300h200l200 -300h-200l-100 150l-100 -150h-200z" />
<glyph unicode="&#xcb;" horiz-adv-x="650" d="M-50 350v200h50v600h500v-200h-300v-400h200v-200h-200v-150h300v-200h-500v350h-50zM-50 1200v300h200v-300h-200zM300 1200v300h200v-300h-200z" />
<glyph unicode="&#xcc;" horiz-adv-x="350" d="M-50 1650l250 100v-50l-100 -500zM0 0v1150h200v-1150h-200z" />
<glyph unicode="&#xcd;" horiz-adv-x="350" d="M0 0v1150h200v-1150h-200zM0 1700v50l250 -100l-150 -450z" />
<glyph unicode="&#xce;" horiz-adv-x="350" d="M-200 1200l200 300h200l200 -300h-200l-100 150l-100 -150h-200zM0 0v1150h200v-1150h-200z" />
<glyph unicode="&#xcf;" horiz-adv-x="350" d="M-175 1200v300h200v-300h-200zM0 0v1150h200v-1150h-200zM175 1200v300h200v-300h-200z" />
<glyph unicode="&#xd0;" horiz-adv-x="850" d="M0 350v200h100v600h200q400 0 400 -550v-50q0 -550 -400 -550h-200v350h-100zM300 200q200 0 200 350v50q0 350 -200 350v-400h100v-200h-100v-150z" />
<glyph unicode="&#xd1;" d="M0 0v1150l400 -550v550h200v-1150l-400 550v-550h-200zM50 1188v206q100 100 150 100t100 -50t100 -50q100 0 150 106v-206q-50 -100 -150 -100q-50 0 -100 50t-100 50t-150 -106z" />
<glyph unicode="&#xd2;" d="M0 550v50q0 550 300 550t300 -550v-50q0 -550 -300 -550t-300 550zM150 1650l250 100v-50l-100 -500zM200 550q0 -350 100 -350t100 350v50q0 350 -100 350t-100 -350v-50z" />
<glyph unicode="&#xd3;" d="M0 550v50q0 550 300 550t300 -550v-50q0 -550 -300 -550t-300 550zM200 550q0 -350 100 -350t100 350v50q0 350 -100 350t-100 -350v-50zM200 1700v50l250 -100l-150 -450z" />
<glyph unicode="&#xd4;" d="M0 550v50q0 550 300 550t300 -550v-50q0 -550 -300 -550t-300 550zM0 1200l200 300h200l200 -300h-200l-100 150l-100 -150h-200zM200 550q0 -350 100 -350t100 350v50q0 350 -100 350t-100 -350v-50z" />
<glyph unicode="&#xd5;" d="M0 550v50q0 550 300 550t300 -550v-50q0 -550 -300 -550t-300 550zM50 1188v206q100 100 150 100t100 -50t100 -50q100 0 150 106v-206q-50 -100 -150 -100q-50 0 -100 50t-100 50t-150 -106zM200 550q0 -350 100 -350t100 350v50q0 350 -100 350t-100 -350v-50z" />
<glyph unicode="&#xd6;" d="M0 550v50q0 550 300 550t300 -550v-50q0 -550 -300 -550t-300 550zM25 1200v300h200v-300h-200zM200 550q0 -350 100 -350t100 350v50q0 350 -100 350t-100 -350v-50zM375 1200v300h200v-300h-200z" />
<glyph unicode="&#xd7;" d="M0 150l200 300l-200 300h200l100 -150l100 150h200l-200 -300l200 -300h-200l-100 150l-100 -150h-200z" />
<glyph unicode="&#xd8;" d="M0 0l59 170q-59 136 -59 380v50q0 550 300 550q52 0 94 -16l6 16h200l-59 -170q59 -136 59 -380v-50q0 -550 -300 -550q-52 0 -94 16l-6 -16h-200zM200 575l128 367q-13 8 -28 8q-100 0 -100 -350v-25zM272 208q13 -8 28 -8q100 0 100 350v25z" />
<glyph unicode="&#xd9;" d="M0 300v850h200v-800q0 -150 100 -150t100 150v800h200v-850q0 -300 -250 -300h-100q-250 0 -250 300zM150 1650l250 100v-50l-100 -500z" />
<glyph unicode="&#xda;" d="M0 300v850h200v-800q0 -150 100 -150t100 150v800h200v-850q0 -300 -250 -300h-100q-250 0 -250 300zM200 1700v50l250 -100l-150 -450z" />
<glyph unicode="&#xdb;" d="M0 300v850h200v-800q0 -150 100 -150t100 150v800h200v-850q0 -300 -250 -300h-100q-250 0 -250 300zM0 1200l200 300h200l200 -300h-200l-100 150l-100 -150h-200z" />
<glyph unicode="&#xdc;" d="M0 300v850h200v-800q0 -150 100 -150t100 150v800h200v-850q0 -300 -250 -300h-100q-250 0 -250 300zM22 1200v300h200v-300h-200zM372 1200v300h200v-300h-200z" />
<glyph unicode="&#xdd;" horiz-adv-x="850" d="M0 1150h200l150 -400l150 400h200l-250 -660v-490h-200v490zM250 1700v50l250 -100l-150 -450z" />
<glyph unicode="&#xde;" d="M0 0v1150h200v-150q400 0 400 -400v-50q0 -400 -400 -400v-150h-200zM200 350q200 0 200 200v50q0 200 -200 200v-450z" />
<glyph unicode="&#xdf;" horiz-adv-x="800" d="M0 0v900q0 250 250 250q350 0 350 -250q0 -200 -82 -200q132 -101 132 -300v-100q0 -283 -300 -300v200q100 11 100 100v100q0 200 -150 200h-50v200h50q100 0 100 100q0 49 -100 50q-100 -1 -100 -100v-850h-200z" />
<glyph unicode="&#xe0;" horiz-adv-x="680" d="M0 0l200 920h160l200 -920h-160l-34 160h-172l-34 -160h-160zM160 1320l200 80v-40l-80 -400zM230 320h100l-50 232z" />
<glyph unicode="&#xe1;" horiz-adv-x="680" d="M0 0l200 920h160l200 -920h-160l-34 160h-172l-34 -160h-160zM200 1360v40l200 -80l-120 -360zM230 320h100l-50 232z" />
<glyph unicode="&#xe2;" horiz-adv-x="680" d="M0 0l200 920h160l200 -920h-160l-34 160h-172l-34 -160h-160zM40 960l160 240h160l160 -240h-160l-80 120l-80 -120h-160zM230 320h100l-50 232z" />
<glyph unicode="&#xe3;" horiz-adv-x="680" d="M0 0l200 920h160l200 -920h-160l-34 160h-172l-34 -160h-160zM80 950v165q80 80 120 80t80 -40t80 -40q80 0 120 85v-165q-40 -80 -120 -80q-40 0 -80 40t-80 40t-120 -85zM230 320h100l-50 232z" />
<glyph unicode="&#xe4;" horiz-adv-x="680" d="M0 0l200 920h160l200 -920h-160l-34 160h-172l-34 -160h-160zM60 960v240h160v-240h-160zM230 320h100l-50 232zM340 960v240h160v-240h-160z" />
<glyph unicode="&#xe5;" horiz-adv-x="680" d="M0 0l200 920h160l200 -920h-160l-34 160h-172l-34 -160h-160zM200 960v240h160v-240h-160zM230 320h100l-50 232z" />
<glyph unicode="&#xe6;" horiz-adv-x="920" d="M0 0l200 920h160l40 -184v184h400v-160h-240v-320h160v-160h-160v-120h240v-160h-400l-34 160h-172l-34 -160h-160zM230 320h100l-50 232z" />
<glyph unicode="&#xe7;" horiz-adv-x="480" d="M0 440v40q0 440 320 440l41 1v-161h-41q-160 0 -160 -280v-40q0 -280 160 -280h40v-160h-48q-35 -240 -231 -240h-40v160h40q62 0 76 120q-157 92 -157 400z" />
<glyph unicode="&#xe8;" horiz-adv-x="520" d="M-40 280v160h40v480h400v-160h-240v-320h160v-160h-160v-120h240v-160h-400v280h-40zM120 1320l200 80v-40l-80 -400z" />
<glyph unicode="&#xe9;" horiz-adv-x="520" d="M-40 280v160h40v480h400v-160h-240v-320h160v-160h-160v-120h240v-160h-400v280h-40zM160 1360v40l200 -80l-120 -360z" />
<glyph unicode="&#xea;" horiz-adv-x="520" d="M-40 280v160h40v480h400v-160h-240v-320h160v-160h-160v-120h240v-160h-400v280h-40zM-40 960l160 240h160l160 -240h-160l-80 120l-80 -120h-160z" />
<glyph unicode="&#xeb;" horiz-adv-x="520" d="M-40 280v160h40v480h400v-160h-240v-320h160v-160h-160v-120h240v-160h-400v280h-40zM-40 960v240h160v-240h-160zM240 960v240h160v-240h-160z" />
<glyph unicode="&#xec;" horiz-adv-x="280" d="M-40 1320l200 80v-40l-80 -400zM0 0v920h160v-920h-160z" />
<glyph unicode="&#xed;" horiz-adv-x="280" d="M0 0v920h160v-920h-160zM0 1360v40l200 -80l-120 -360z" />
<glyph unicode="&#xee;" horiz-adv-x="280" d="M-160 960l160 240h160l160 -240h-160l-80 120l-80 -120h-160zM0 0v920h160v-920h-160z" />
<glyph unicode="&#xef;" horiz-adv-x="280" d="M-140 960v240h160v-240h-160zM0 0v920h160v-920h-160zM140 960v240h160v-240h-160z" />
<glyph unicode="&#xf0;" horiz-adv-x="680" d="M0 280v160h80v480h160q320 0 320 -440v-40q0 -440 -320 -440h-160v280h-80zM240 160q160 0 160 280v40q0 280 -160 280v-320h80v-160h-80v-120z" />
<glyph unicode="&#xf1;" horiz-adv-x="600" d="M0 0v920l320 -440v440h160v-920l-320 440v-440h-160zM40 950v165q80 80 120 80t80 -40t80 -40q80 0 120 85v-165q-40 -80 -120 -80q-40 0 -80 40t-80 40t-120 -85z" />
<glyph unicode="&#xf2;" horiz-adv-x="600" d="M0 440v40q0 440 240 440t240 -440v-40q0 -440 -240 -440t-240 440zM120 1320l200 80v-40l-80 -400zM160 440q0 -280 80 -280t80 280v40q0 280 -80 280t-80 -280v-40z" />
<glyph unicode="&#xf3;" horiz-adv-x="600" d="M0 440v40q0 440 240 440t240 -440v-40q0 -440 -240 -440t-240 440zM160 440q0 -280 80 -280t80 280v40q0 280 -80 280t-80 -280v-40zM160 1360v40l200 -80l-120 -360z" />
<glyph unicode="&#xf4;" horiz-adv-x="600" d="M0 440v40q0 440 240 440t240 -440v-40q0 -440 -240 -440t-240 440zM0 960l160 240h160l160 -240h-160l-80 120l-80 -120h-160zM160 440q0 -280 80 -280t80 280v40q0 280 -80 280t-80 -280v-40z" />
<glyph unicode="&#xf5;" horiz-adv-x="600" d="M0 440v40q0 440 240 440t240 -440v-40q0 -440 -240 -440t-240 440zM40 950v165q80 80 120 80t80 -40t80 -40q80 0 120 85v-165q-40 -80 -120 -80q-40 0 -80 40t-80 40t-120 -85zM160 440q0 -280 80 -280t80 280v40q0 280 -80 280t-80 -280v-40z" />
<glyph unicode="&#xf6;" horiz-adv-x="600" d="M0 440v40q0 440 240 440t240 -440v-40q0 -440 -240 -440t-240 440zM20 960v240h160v-240h-160zM160 440q0 -280 80 -280t80 280v40q0 280 -80 280t-80 -280v-40zM300 960v240h160v-240h-160z" />
<glyph unicode="&#xf7;" horiz-adv-x="1014" d="M87 647v140h839l1 -1v-139h-840zM382 377q0 15 16 31l82 84q15 14 29 14q13 0 31 -16l80 -86q12 -16 12 -29q0 -15 -14 -31l-80 -88q-20 -20 -29 -20q-16 0 -29 14l-88 101q-10 13 -10 26zM382 1070q0 15 16 31l82 84q15 14 29 14q13 0 31 -16l80 -86q12 -16 12 -29 q0 -15 -14 -31l-80 -88q-20 -20 -29 -20q-16 0 -29 14l-88 101q-10 13 -10 26z" />
<glyph unicode="&#xf8;" horiz-adv-x="600" d="M0 0l47 136q-47 109 -47 304v40q0 440 240 440q41 0 75 -13l5 13h160l-47 -136q47 -109 47 -304v-40q0 -440 -240 -440q-41 0 -75 13l-5 -13h-160zM160 460l102 294q-10 6 -22 6q-80 0 -80 -280v-20zM218 166q10 -6 22 -6q80 0 80 280v20z" />
<glyph unicode="&#xf9;" horiz-adv-x="600" d="M0 240v680h160v-640q0 -120 80 -120t80 120v640h160v-680q0 -240 -200 -240h-80q-200 0 -200 240zM120 1320l200 80v-40l-80 -400z" />
<glyph unicode="&#xfa;" horiz-adv-x="600" d="M0 240v680h160v-640q0 -120 80 -120t80 120v640h160v-680q0 -240 -200 -240h-80q-200 0 -200 240zM160 1360v40l200 -80l-120 -360z" />
<glyph unicode="&#xfb;" horiz-adv-x="600" d="M0 240v680h160v-640q0 -120 80 -120t80 120v640h160v-680q0 -240 -200 -240h-80q-200 0 -200 240zM0 960l160 240h160l160 -240h-160l-80 120l-80 -120h-160z" />
<glyph unicode="&#xfc;" horiz-adv-x="600" d="M0 240v680h160v-640q0 -120 80 -120t80 120v640h160v-680q0 -240 -200 -240h-80q-200 0 -200 240zM18 960v240h160v-240h-160zM298 960v240h160v-240h-160z" />
<glyph unicode="&#xfd;" horiz-adv-x="680" d="M0 920h160l120 -320l120 320h160l-200 -528v-392h-160v392zM200 1360v40l200 -80l-120 -360z" />
<glyph unicode="&#xfe;" horiz-adv-x="600" d="M0 0v920h160v-120q320 0 320 -320v-40q0 -320 -320 -320v-120h-160zM160 280q160 0 160 160v40q0 160 -160 160v-360z" />
<glyph unicode="&#xff;" horiz-adv-x="680" d="M0 920h160l120 -320l120 320h160l-200 -528v-392h-160v392zM58 960v240h160v-240h-160zM338 960v240h160v-240h-160z" />
<glyph unicode="&#x2c6;" d="M0 1200l200 300h200l200 -300h-200l-100 150l-100 -150h-200z" />
<glyph unicode="&#x2dc;" horiz-adv-x="650" d="M0 1188v206q100 100 150 100t100 -50t100 -50q100 0 150 106v-206q-50 -100 -150 -100q-50 0 -100 50t-100 50t-150 -106z" />
<glyph unicode="&#x2000;" horiz-adv-x="875" />
<glyph unicode="&#x2001;" horiz-adv-x="1750" />
<glyph unicode="&#x2002;" horiz-adv-x="875" />
<glyph unicode="&#x2003;" horiz-adv-x="1750" />
<glyph unicode="&#x2004;" horiz-adv-x="583" />
<glyph unicode="&#x2005;" horiz-adv-x="437" />
<glyph unicode="&#x2006;" horiz-adv-x="291" />
<glyph unicode="&#x2007;" horiz-adv-x="291" />
<glyph unicode="&#x2008;" horiz-adv-x="218" />
<glyph unicode="&#x2009;" horiz-adv-x="350" />
<glyph unicode="&#x200a;" horiz-adv-x="97" />
<glyph unicode="&#x2010;" horiz-adv-x="650" d="M0 350v200h500v-200h-500z" />
<glyph unicode="&#x2011;" horiz-adv-x="650" d="M0 350v200h500v-200h-500z" />
<glyph unicode="&#x2012;" horiz-adv-x="650" d="M0 350v200h500v-200h-500z" />
<glyph unicode="&#x2013;" d="M0 350v200h500v-200h-500z" />
<glyph unicode="&#x2014;" horiz-adv-x="950" d="M0 350v200h650v-200h-650z" />
<glyph unicode="&#x2018;" horiz-adv-x="400" d="M0 750l150 450l100 -500v-50z" />
<glyph unicode="&#x2019;" horiz-adv-x="400" d="M0 1150v50l250 -100l-150 -450z" />
<glyph unicode="&#x201a;" horiz-adv-x="557" d="M119 114v42l119 125q44 0 88.5 -65.5t44.5 -151.5q0 -109 -71 -226.5t-139 -117.5v43q73 43 87 190q0 119 -129 161z" />
<glyph unicode="&#x201c;" horiz-adv-x="700" d="M0 750l150 450l100 -500v-50zM300 750l150 450l100 -500v-50z" />
<glyph unicode="&#x201d;" horiz-adv-x="700" d="M0 1150v50l250 -100l-150 -450zM300 1150v50l250 -100l-150 -450z" />
<glyph unicode="&#x201e;" horiz-adv-x="910" d="M119 114v42l119 125q44 0 88.5 -65.5t44.5 -151.5q0 -109 -71 -226.5t-139 -117.5v43q73 43 87 190q0 119 -129 161zM472 114v42l119 125q44 0 88.5 -65.5t44.5 -151.5q0 -109 -71 -226.5t-139 -117.5v43q73 43 87 190q0 119 -129 161z" />
<glyph unicode="&#x2022;" horiz-adv-x="1024" d="M216 718q0 123 87 209t210 86q122 0 208.5 -86.5t86.5 -208.5t-87.5 -209.5t-209.5 -87.5q-123 0 -209 87t-86 210z" />
<glyph unicode="&#x2026;" horiz-adv-x="950" d="M0 0v300h200v-300h-200zM300 0v300h200v-300h-200zM600 0v300h200v-300h-200z" />
<glyph unicode="&#x202f;" horiz-adv-x="350" />
<glyph unicode="&#x2039;" d="M0 350v200l500 200v-200l-250 -100l250 -100v-200z" />
<glyph unicode="&#x203a;" d="M0 150v200l250 100l-250 100v200l500 -200v-200z" />
<glyph unicode="&#x205f;" horiz-adv-x="437" />
<glyph unicode="&#x20ac;" horiz-adv-x="900" d="M-50 250v200h154q-4 47 -4 100v50q0 26 1 50h-151v200h177q78 300 373 300l150 1v-201h-150q-107 0 -157 -100h157v-200h-199q-1 -24 -1 -50v-50q0 -54 5 -100h195v-200h-123q47 -50 123 -50h150v-200h-150q-270 0 -358 250h-192z" />
<glyph unicode="&#x2122;" horiz-adv-x="850" d="M0 1050v100h300v-100h-100v-475h-100v475h-100zM375 575v575l200 -300l200 300v-575h-100v275l-100 -150l-100 150v-275h-100z" />
<glyph unicode="&#xe000;" horiz-adv-x="920" d="M0 0v920h920v-920h-920z" />
</font>
</defs>
</svg>
